<?xml version="1.0" encoding="UTF-8"?>
<svg xmlns="http://www.w3.org/2000/svg" xmlns:xlink="http://www.w3.org/1999/xlink" width="36px" height="36px" viewBox="0 0 36 36" version="1.1">
<g id="surface1">
<path style=" stroke:none;fill-rule:nonzero;fill:rgb(36.862746%,59.607846%,68.627453%);fill-opacity:1;" d="M 21.414062 21.46875 L 21.414062 1.96875 L 4.109375 1.96875 C 3.394531 1.96875 2.8125 2.582031 2.8125 3.328125 L 2.8125 21.539062 L 21.414062 21.539062 Z M 21.414062 21.46875 "/>
<path style=" stroke:none;fill-rule:nonzero;fill:rgb(36.862746%,59.607846%,68.627453%);fill-opacity:1;" d="M 23.941406 21.46875 L 33.273438 21.46875 L 33.273438 13.042969 C 33.273438 12.296875 32.6875 11.683594 31.976562 11.683594 L 23.941406 11.683594 Z M 23.941406 21.46875 "/>
<path style=" stroke:none;fill-rule:nonzero;fill:rgb(36.862746%,59.607846%,68.627453%);fill-opacity:1;" d="M 21.414062 24.121094 L 12.144531 24.121094 L 12.144531 32.542969 C 12.144531 33.292969 12.726562 33.902344 13.441406 33.902344 L 21.476562 33.902344 L 21.476562 24.121094 Z M 21.414062 24.121094 "/>
<path style=" stroke:none;fill-rule:nonzero;fill:rgb(36.862746%,59.607846%,68.627453%);fill-opacity:1;" d="M 23.941406 24.121094 L 23.941406 33.902344 L 31.976562 33.902344 C 32.6875 33.902344 33.273438 33.292969 33.273438 32.542969 L 33.273438 24.121094 Z M 23.941406 24.121094 "/>
</g>
</svg>
