<?xml version="1.0" encoding="UTF-8"?>
<svg xmlns="http://www.w3.org/2000/svg" width="16px" height="16px" viewBox="0 0 16 16" version="1.1">
<g id="surface1">
<path style=" stroke:none;fill-rule:nonzero;fill:rgb(36.862746%,59.607846%,68.627453%);fill-opacity:1;" d="M 9.515625 9.542969 L 9.515625 0.875 L 1.824219 0.875 C 1.507812 0.875 1.25 1.148438 1.25 1.480469 L 1.25 9.574219 L 9.515625 9.574219 Z M 9.515625 9.542969 "/>
<path style=" stroke:none;fill-rule:nonzero;fill:rgb(36.862746%,59.607846%,68.627453%);fill-opacity:1;" d="M 10.640625 9.542969 L 14.789062 9.542969 L 14.789062 5.796875 C 14.789062 5.464844 14.527344 5.195312 14.210938 5.195312 L 10.640625 5.195312 Z M 10.640625 9.542969 "/>
<path style=" stroke:none;fill-rule:nonzero;fill:rgb(36.862746%,59.607846%,68.627453%);fill-opacity:1;" d="M 9.515625 10.71875 L 5.398438 10.71875 L 5.398438 14.464844 C 5.398438 14.796875 5.65625 15.070312 5.972656 15.070312 L 9.546875 15.070312 L 9.546875 10.71875 Z M 9.515625 10.71875 "/>
<path style=" stroke:none;fill-rule:nonzero;fill:rgb(36.862746%,59.607846%,68.627453%);fill-opacity:1;" d="M 10.640625 10.71875 L 10.640625 15.070312 L 14.210938 15.070312 C 14.527344 15.070312 14.789062 14.796875 14.789062 14.464844 L 14.789062 10.71875 Z M 10.640625 10.71875 "/>
</g>
</svg>
